<?xml version="1.0" encoding="utf-8"?>
<!-- Generator: Adobe Illustrator 17.0.0, SVG Export Plug-In . SVG Version: 6.00 Build 0)  -->
<!DOCTYPE svg PUBLIC "-//W3C//DTD SVG 1.1//EN" "http://www.w3.org/Graphics/SVG/1.1/DTD/svg11.dtd">
<svg version="1.1" id="Layer_2" xmlns="http://www.w3.org/2000/svg" xmlns:xlink="http://www.w3.org/1999/xlink" x="0px" y="0px"
	 width="1000px" height="107.318px" viewBox="0 0 1000 107.318" enable-background="new 0 0 1000 107.318" xml:space="preserve">
<g>
	<polygon fill="#FFFFFF" points="881.774,67.358 758.244,90.213 755.433,90.733 753.112,90.056 518.077,21.555 522.74,21.276 
		362.776,83.917 361.254,84.513 359.813,84.113 207.407,41.843 208.593,41.843 55,79.573 207.406,37.302 207.964,37.148 
		208.594,37.302 362.187,75.032 359.224,75.228 517.259,7.869 519.431,6.944 521.923,7.59 758.887,69.088 753.756,68.932 
		875.997,39.96 	"/>
</g>
<circle fill="#FFFFFF" cx="208" cy="39.573" r="7.5"/>
<circle fill="#FFFFFF" cx="361" cy="79.573" r="11.164"/>
<circle fill="#FFFFFF" cx="520" cy="14.573" r="14.573"/>
<circle fill="#FFFFFF" cx="756" cy="79.573" r="19.191"/>
<circle fill="#FFFFFF" cx="55" cy="79.573" r="3.712"/>
<g>
	<path fill="#FFFFFF" d="M955.082,18.222c-0.51,0.096-0.959,0.416-1.359,0.893c-0.249,0.068-0.487,0.176-0.715,0.319l-40.858,9.039
		c-1.313,0.246-2.418,1.177-3.291,2.594l-40.273,8.13c-1.409,0.264-1.25,7.402,0.353,15.942s4.045,15.248,5.454,14.984l39.638-7.443
		c1.604,1.542,3.302,2.305,4.917,2.002l41.875-7.863c0.537,0.289,1.064,0.42,1.566,0.326c3.315-0.622,4.366-9.84,2.348-20.587
		C962.72,25.807,958.397,17.599,955.082,18.222z M961.857,54.3c-2.201,0.413-5.382-6.692-7.106-15.869
		c-1.723-9.178-1.336-16.953,0.865-17.366c2.201-0.413,5.382,6.692,7.106,15.869S964.057,53.886,961.857,54.3z"/>
	
		<linearGradient id="SVGID_1_" gradientUnits="userSpaceOnUse" x1="968.8602" y1="47.9528" x2="965.1566" y2="47.9528" gradientTransform="matrix(0.9828 -0.1846 0.1846 0.9828 0.8942 168.7522)">
		<stop  offset="0" style="stop-color:#FFFFFF"/>
		<stop  offset="1" style="stop-color:#FFFFFF;stop-opacity:0"/>
	</linearGradient>
	<path opacity="0.6" fill="url(#SVGID_1_)" d="M961.962,37.076c1.424,7.586,0.869,14.056-0.647,14.341
		c-1.516,0.285,0.41-6.731-1.015-14.316c-1.424-7.586-5.66-12.869-4.144-13.154C957.673,23.662,960.537,29.491,961.962,37.076z"/>
</g>
</svg>
